# xmcd CD database file
#
# Track frame offsets:
#	150
#	12253
#	26514
#	42035
#	52477
#	65755
#	80748
#	96566
#	109553
#	126775
#	137748
#	151945
#	164277
#
# Disc length: 2390 seconds
#
# Revision: 0
# Processed by: cddbd v1.5.2PL0 Copyright (c) Steve Scherf et al.
# Submitted via: CDex 1.79
#
DISCID=b109540d
DTITLE=Leyla Fences - Liars, Cheats and Fools
DYEAR=2010
DGENRE=Country
TTITLE0=Let Him Go
TTITLE1=This Close
TTITLE2=Hardly Livin'
TTITLE3=The Net
TTITLE4=Love Doesn't Work Like That
TTITLE5=Dancing With You
TTITLE6=Gettin' Over You
TTITLE7=Upside Blues
TTITLE8=The Other Side
TTITLE9=The Fool
TTITLE10=Maybe
TTITLE11=Two's A Crowd
TTITLE12=Life Is Funny
EXTD=YEAR: 2010
EXTT0=
EXTT1=
EXTT2=
EXTT3=
EXTT4=
EXTT5=
EXTT6=
EXTT7=
EXTT8=
EXTT9=
EXTT10=
EXTT11=
EXTT12=
PLAYORDER=
